<?xml version="1.0" standalone="no"?>
<!DOCTYPE svg PUBLIC "-//W3C//DTD SVG 20010904//EN"
 "http://www.w3.org/TR/2001/REC-SVG-20010904/DTD/svg10.dtd">
<svg version="1.0" xmlns="http://www.w3.org/2000/svg"
 width="300.000000pt" height="166.000000pt" viewBox="0 0 300.000000 166.000000"
 preserveAspectRatio="xMidYMid meet">

<g transform="translate(0.000000,166.000000) scale(0.100000,-0.100000)"
fill="#000000" stroke="none">
<path d="M1574 1503 c-47 -33 -42 -149 10 -192 15 -13 15 -11 1 15 -18 35 -20
135 -3 152 28 28 71 5 46 -25 -11 -14 -11 -15 2 -11 9 3 15 17 15 34 0 25 -4
29 -30 32 -16 1 -35 -1 -41 -5z"/>
<path d="M1335 1414 c-9 -9 -14 -23 -11 -31 3 -8 6 -17 6 -19 0 -2 4 -4 9 -4
5 0 7 9 4 20 -8 29 24 38 49 13 24 -25 34 -91 19 -134 -15 -42 -7 -49 13 -10
9 16 16 53 16 81 0 41 -5 56 -25 75 -28 29 -57 32 -80 9z"/>
<path d="M1630 1408 c-29 -32 -25 -83 11 -152 24 -46 30 -67 25 -94 -4 -27 -3
-33 7 -23 19 19 13 81 -13 144 -29 69 -21 112 20 112 20 0 26 -6 28 -27 3 -27
-2 -32 -38 -29 -8 0 -4 -5 9 -11 20 -11 26 -9 42 11 11 13 19 29 19 35 0 22
-40 56 -65 56 -13 0 -33 -10 -45 -22z"/>
<path d="M1874 1268 c-46 -45 -84 -89 -84 -97 0 -9 11 -29 24 -45 l23 -30 -81
-78 c-60 -57 -76 -77 -61 -77 11 0 32 10 46 22 15 12 47 40 73 61 l47 39 29
-28 c18 -17 36 -26 48 -23 34 9 191 132 192 151 0 22 -139 187 -158 187 -8 0
-52 -37 -98 -82z m123 15 c4 -12 -131 -133 -147 -133 -29 0 -2 42 58 92 65 56
82 63 89 41z m40 -50 c5 -15 -135 -135 -148 -127 -19 11 -4 34 61 88 64 54 80
61 87 39z m39 -45 c9 -14 -114 -127 -139 -128 -32 0 -15 27 52 84 68 59 76 63
87 44z"/>
<path d="M1270 1320 c-24 -24 -26 -53 -4 -74 17 -18 50 -21 58 -7 4 5 -3 7
-13 4 -27 -7 -45 28 -27 52 17 24 49 15 60 -18 7 -19 6 -41 -4 -75 -23 -83
-24 -115 -1 -142 l20 -25 -12 33 c-10 27 -9 40 7 80 10 26 21 69 23 95 4 41 1
53 -18 73 -27 29 -62 31 -89 4z"/>
<path d="M1038 1238 c50 -52 92 -102 92 -110 0 -9 -7 -21 -15 -28 -12 -10 -19
-10 -33 2 -9 8 -48 41 -87 73 -109 92 -113 94 -58 30 67 -79 158 -165 175
-165 8 0 19 5 26 12 8 8 25 -1 67 -38 31 -27 68 -56 83 -64 35 -18 86 -78 58
-67 -16 6 -17 5 -6 -8 51 -61 182 -58 261 7 61 49 85 136 53 188 -10 15 -13
17 -8 5 11 -30 6 -128 -6 -120 -4 3 -14 -3 -21 -11 -33 -40 -94 -67 -164 -74
-38 -4 -77 -3 -85 2 -10 6 -7 7 10 3 22 -6 21 -4 -8 14 -18 12 -37 31 -43 44
-6 13 -21 30 -34 38 -13 8 -46 36 -74 62 -39 36 -50 53 -46 68 11 32 -3 54
-63 101 -31 25 -82 65 -112 88 -47 37 -41 30 38 -52z m577 -318 c-16 -16 -32
-30 -37 -30 -8 0 53 59 61 60 3 0 -8 -13 -24 -30z"/>
<path d="M1529 1246 c-9 -20 -9 -29 1 -41 14 -17 46 -20 54 -6 4 5 -2 7 -13 4
-25 -6 -37 15 -18 34 11 11 19 12 34 4 25 -13 48 -65 39 -88 -6 -14 -4 -15 5
-6 34 34 -6 116 -59 121 -26 3 -34 -2 -43 -22z"/>
<path d="M1403 1185 c-12 -8 -27 -31 -33 -50 -10 -30 -9 -40 4 -60 9 -14 20
-25 23 -25 4 0 2 5 -5 12 -19 19 -14 54 11 84 16 19 29 25 41 21 22 -9 16 -42
-7 -41 -9 1 -17 -2 -17 -7 0 -13 34 -11 48 3 18 18 14 56 -7 68 -26 13 -33 13
-58 -5z"/>
<path d="M1559 1073 l-24 -28 25 22 c14 12 36 23 50 26 l25 4 -26 2 c-16 1
-34 -9 -50 -26z"/>
<path d="M1565 1050 l-29 -30 36 0 c43 0 67 22 48 45 -17 21 -22 19 -55 -15z"/>
<path d="M1330 995 c-7 -9 -11 -17 -9 -20 3 -2 10 5 17 15 14 24 10 26 -8 5z"/>
<path d="M1470 1000 c0 -5 14 -10 30 -10 17 0 30 5 30 10 0 6 -13 10 -30 10
-16 0 -30 -4 -30 -10z"/>
<path d="M1578 1003 c-25 -4 -41 -23 -19 -23 5 0 11 -10 14 -22 6 -22 6 -22
27 -3 12 11 26 28 31 37 10 19 6 20 -53 11z"/>
<path d="M1367 994 c-12 -12 4 -24 32 -24 16 0 34 7 41 15 11 13 7 15 -27 15
-22 0 -43 -3 -46 -6z"/>
<path d="M1490 958 c0 -13 -5 -29 -12 -36 -17 -17 4 -36 31 -27 27 8 57 53 45
65 -5 5 -21 12 -36 15 -25 6 -28 4 -28 -17z"/>
<path d="M1398 963 c-39 -3 -48 -8 -48 -23 0 -23 36 -50 67 -50 24 0 53 34 53
62 0 10 -6 17 -12 16 -7 -1 -34 -3 -60 -5z"/>
<path d="M1190 899 c-166 -19 -222 -64 -117 -93 64 -18 210 -36 295 -36 47 0
63 -3 59 -12 -7 -21 -304 -7 -391 19 -16 4 -17 1 -11 -36 l7 -41 -299 -2 -298
-3 -3 -22 -3 -23 1071 0 1071 0 -3 23 -3 22 -298 3 -299 2 7 41 c6 37 5 40
-11 36 -87 -26 -384 -40 -391 -19 -4 9 13 12 64 12 90 0 276 26 311 42 74 36
10 70 -165 89 -109 11 -145 8 -102 -9 26 -10 72 -75 62 -86 -18 -18 -45 -2
-70 41 -30 52 -42 45 -19 -11 15 -36 15 -36 -9 -36 -14 0 -29 8 -35 20 -14 25
-33 26 -25 1 5 -18 -1 -19 -123 -18 -121 0 -129 1 -124 19 6 24 -15 23 -28 -2
-10 -19 -40 -27 -53 -14 -3 3 5 24 19 45 13 21 24 43 24 49 0 11 -3 11 -110
-1z m80 -16 c0 -16 -53 -73 -69 -73 -32 0 -30 12 7 46 34 31 62 44 62 27z
m517 -25 c38 -37 41 -48 14 -48 -11 0 -34 18 -51 40 -26 33 -29 40 -14 40 10
0 33 -14 51 -32z m-587 18 c0 -3 -16 -17 -35 -32 -25 -19 -39 -24 -46 -17 -7
7 -2 17 17 32 23 18 64 29 64 17z m664 -17 c19 -15 24 -25 17 -32 -7 -7 -21
-2 -46 17 -19 15 -35 29 -35 32 0 12 41 1 64 -17z m-764 -3 c0 -3 -4 -8 -10
-11 -5 -3 -10 -1 -10 4 0 6 5 11 10 11 6 0 10 -2 10 -4z m820 -6 c0 -5 -2 -10
-4 -10 -3 0 -8 5 -11 10 -3 6 -1 10 4 10 6 0 11 -4 11 -10z"/>
<path d="M470 557 c-19 -17 -25 -32 -25 -63 -1 -40 1 -43 52 -70 35 -19 53
-35 53 -48 0 -17 -6 -18 -55 -13 -61 6 -57 11 -39 -53 5 -17 14 -20 64 -20 47
0 64 5 87 24 25 21 28 29 25 69 -4 42 -6 45 -53 67 -38 18 -49 29 -49 47 0 26
28 31 74 13 29 -11 31 -6 15 39 -11 30 -13 31 -67 31 -44 -1 -63 -6 -82 -23z"/>
<path d="M650 436 l0 -146 38 0 37 0 -2 78 -2 77 16 -47 c14 -42 20 -48 44
-48 24 0 30 6 43 48 l15 47 -2 -78 -2 -77 37 0 37 0 3 145 3 145 -41 0 -42 0
-23 -65 c-12 -36 -26 -62 -31 -57 -4 4 -16 32 -26 62 -18 54 -20 55 -60 58
l-42 3 0 -145z"/>
<path d="M963 559 l-33 -21 0 -101 0 -102 33 -22 c47 -32 110 -31 154 3 l33
25 0 97 0 97 -33 23 c-43 29 -110 29 -154 1z m102 -124 c0 -68 -1 -70 -25 -70
-24 0 -25 3 -28 73 l-3 73 28 -3 c28 -3 28 -4 28 -73z"/>
<path d="M1165 435 l0 -145 46 0 47 0 -5 44 c-7 61 11 65 35 6 l21 -50 130 0
c71 0 132 3 134 8 2 4 7 19 11 35 6 27 6 27 -44 27 -50 0 -51 1 -48 28 3 24 7
27 36 24 30 -3 32 -1 32 27 0 29 -1 30 -36 24 -34 -6 -36 -5 -32 23 3 28 5 29
49 28 l46 -2 -6 32 -7 31 -137 3 c-126 2 -137 1 -137 -15 0 -10 -12 -36 -26
-58 l-26 -40 5 58 4 57 -46 0 -46 0 0 -145z m245 -2 c0 -156 -3 -157 -59 -37
l-33 71 37 51 c20 29 41 52 46 52 5 0 9 -62 9 -137z"/>
<path d="M1680 436 l0 -146 38 0 37 0 -2 78 -2 77 16 -47 c14 -41 20 -48 43
-48 23 0 29 7 43 48 l16 47 -2 -78 -2 -77 40 0 40 0 0 145 0 145 -42 0 -41 0
-22 -66 c-12 -36 -26 -62 -30 -57 -4 4 -17 33 -28 63 -19 53 -21 55 -61 58
l-41 3 0 -145z"/>
<path d="M1975 435 l0 -145 83 0 c74 0 82 2 82 19 0 11 3 26 6 35 5 13 -2 16
-40 16 -44 0 -46 1 -46 30 0 27 2 29 30 24 28 -6 30 -5 30 25 0 29 -2 30 -30
25 -28 -6 -30 -5 -30 26 l0 33 45 -5 c44 -5 45 -5 38 21 -9 41 -10 41 -91 41
l-77 0 0 -145z"/>
<path d="M2213 567 c4 -12 -34 -180 -59 -259 -5 -16 1 -18 40 -18 45 0 46 1
46 30 0 19 6 33 16 37 24 9 49 -10 49 -38 0 -22 5 -24 49 -27 35 -2 46 0 41 9
-4 6 -22 71 -39 143 l-31 131 -59 3 c-48 3 -58 0 -53 -11z m71 -98 c10 -50 7
-59 -15 -59 -17 0 -20 4 -15 23 3 12 6 32 6 45 0 33 17 27 24 -9z"/>
<path d="M2366 558 c-12 -47 -8 -54 30 -50 l35 4 -3 -111 -3 -111 45 0 45 0
-3 110 -4 110 37 0 c30 0 36 3 31 16 -3 9 -6 24 -6 35 0 17 -8 19 -99 19 -94
0 -99 -1 -105 -22z"/>
<path d="M1240 175 c0 -42 3 -55 15 -55 8 0 15 9 15 20 0 11 5 20 10 20 6 0
10 -9 10 -20 0 -11 7 -20 15 -20 12 0 15 13 15 55 0 42 -3 55 -15 55 -8 0 -15
-9 -15 -20 0 -11 -4 -20 -10 -20 -5 0 -10 9 -10 20 0 11 -7 20 -15 20 -12 0
-15 -13 -15 -55z"/>
<path d="M1361 216 c-7 -8 -11 -32 -9 -53 3 -37 4 -38 43 -38 l40 0 3 44 c2
28 -1 47 -10 52 -20 13 -54 10 -67 -5z m49 -40 c0 -14 -4 -28 -10 -31 -6 -4
-10 7 -10 24 0 17 5 31 10 31 6 0 10 -11 10 -24z"/>
<path d="M1472 178 l3 -53 35 0 35 0 3 53 c2 42 0 52 -12 52 -12 0 -16 -11
-16 -45 0 -25 -4 -45 -10 -45 -5 0 -10 20 -10 45 0 34 -4 45 -16 45 -12 0 -14
-10 -12 -52z"/>
<path d="M1593 223 c-20 -7 -15 -41 7 -53 11 -6 20 -16 20 -22 0 -5 -9 -8 -20
-5 -13 3 -20 0 -20 -9 0 -9 12 -14 35 -14 49 0 58 26 19 57 -28 22 -28 23 -6
23 13 0 22 6 22 15 0 15 -31 19 -57 8z"/>
<path d="M1688 175 c4 -53 5 -55 33 -55 16 0 29 5 29 10 0 6 -7 10 -15 10 -18
0 -20 16 -2 24 10 5 10 7 0 12 -18 8 -16 24 2 24 8 0 15 7 15 15 0 10 -10 15
-32 15 l-33 0 3 -55z"/>
<path d="M430 170 c0 -20 7 -20 380 -20 373 0 380 0 380 20 0 20 -7 20 -380
20 -373 0 -380 0 -380 -20z"/>
<path d="M1790 170 c0 -20 7 -20 390 -20 383 0 390 0 390 20 0 20 -7 20 -390
20 -383 0 -390 0 -390 -20z"/>
</g>
</svg>
